<svg width="786" height="336" viewBox="0 0 786 336" fill="none" xmlns="http://www.w3.org/2000/svg">
<mask id="mask0_8_256" style="mask-type:alpha" maskUnits="userSpaceOnUse" x="0" y="90" width="779" height="207">
<path d="M0.783999 241L2.8 236.072L15.12 233.608C18.8533 232.861 21.7653 232.115 23.856 231.368C25.9467 230.472 27.5893 229.203 28.784 227.56C30.128 225.917 31.3973 223.528 32.592 220.392L76.944 110.856C78.8853 106.077 79.408 102.941 78.512 101.448C77.7653 99.9547 75.0027 98.6853 70.224 97.64L59.696 95.176L61.712 90.248H190.064C188.72 92.3387 187.525 94.4293 186.48 96.52C185.584 98.4613 184.763 100.477 184.016 102.568C182.075 107.197 180.581 111.752 179.536 116.232C178.491 120.563 177.371 125.117 176.176 129.896H171.248C171.248 123.923 170.277 118.547 168.336 113.768C166.544 108.84 163.632 104.957 159.6 102.12C155.568 99.1333 150.192 97.64 143.472 97.64H113.68L89.264 157.672H117.936C123.013 157.672 127.344 157 130.928 155.656C134.512 154.312 137.573 152.371 140.112 149.832C142.8 147.293 145.115 144.232 147.056 140.648L153.104 130.344H158.032L132.944 192.392H128.016L130.256 181.64C131.451 176.413 131.077 172.381 129.136 169.544C127.195 166.557 122.64 165.064 115.472 165.064H86.352L66.416 214.344C64.624 218.675 63.3547 222.333 62.608 225.32C61.8613 228.157 62.3093 230.248 63.952 231.592C65.5947 232.936 68.9547 233.608 74.032 233.608H90.608C95.984 233.608 101.061 232.861 105.84 231.368C110.768 229.725 115.472 227.485 119.952 224.648C124.581 221.661 129.211 218.152 133.84 214.12L148.848 200.68H153.776C149.595 207.251 145.563 213.896 141.68 220.616C137.947 227.336 134.661 234.131 131.824 241H0.783999ZM189.817 242.792C184.143 242.792 178.916 241.821 174.137 239.88C169.359 237.939 165.551 235.027 162.713 231.144C159.876 227.112 158.457 222.259 158.457 216.584C158.457 211.507 159.801 207.773 162.489 205.384C165.177 202.845 168.015 201.576 171.001 201.576C173.988 201.576 176.601 202.547 178.841 204.488C181.231 206.28 182.425 208.744 182.425 211.88C182.425 213.672 182.052 215.24 181.305 216.584C180.559 217.779 179.812 218.899 179.065 219.944C178.02 221.139 177.049 222.333 176.153 223.528C175.257 224.723 174.809 226.141 174.809 227.784C174.809 230.024 176.228 232.04 179.065 233.832C181.903 235.475 185.188 236.296 188.921 236.296C193.401 236.296 197.135 234.877 200.121 232.04C203.108 229.053 204.601 224.573 204.601 218.6C204.601 215.165 203.705 211.731 201.913 208.296C200.121 204.712 197.881 201.053 195.193 197.32C191.908 192.541 188.772 187.688 185.785 182.76C182.948 177.832 181.529 172.307 181.529 166.184C181.529 161.256 182.799 156.851 185.337 152.968C187.876 148.936 191.535 145.725 196.313 143.336C201.092 140.947 206.692 139.752 213.113 139.752C220.58 139.752 227.076 141.544 232.601 145.128C238.276 148.563 241.113 153.789 241.113 160.808C241.113 163.645 240.217 166.184 238.425 168.424C236.633 170.515 234.02 171.56 230.585 171.56C227.001 171.56 224.388 170.589 222.745 168.648C221.103 166.707 220.281 164.317 220.281 161.48C220.281 161.032 220.281 160.509 220.281 159.912C220.431 159.165 220.58 158.493 220.729 157.896C220.879 157.149 221.028 156.403 221.177 155.656C221.327 154.76 221.401 154.088 221.401 153.64C221.401 151.4 220.505 149.533 218.713 148.04C216.921 146.547 214.532 145.8 211.545 145.8C208.708 145.8 206.169 146.845 203.929 148.936C201.689 151.027 200.569 154.461 200.569 159.24C200.569 162.973 201.764 166.931 204.153 171.112C206.692 175.144 209.305 179.027 211.993 182.76C215.428 187.389 218.34 191.795 220.729 195.976C223.119 200.008 224.313 205.384 224.313 212.104C224.313 218.973 222.596 224.723 219.161 229.352C215.876 233.832 211.545 237.192 206.169 239.432C200.943 241.672 195.492 242.792 189.817 242.792ZM209.305 297L210.873 293.192L218.489 290.504C221.177 289.608 223.343 288.488 224.985 287.144C226.479 285.8 227.748 283.933 228.793 281.544L281.657 150.056L308.089 133.032L291.513 171.112H292.185C296.964 164.84 302.191 159.389 307.865 154.76C313.54 149.981 319.14 146.323 324.665 143.784C330.34 141.096 335.492 139.752 340.121 139.752C344.751 139.752 348.559 141.171 351.545 144.008C354.681 146.845 356.249 151.4 356.249 157.672C356.249 164.541 355.129 171.709 352.889 179.176C350.649 186.643 347.513 193.885 343.481 200.904C339.599 207.923 335.044 214.269 329.817 219.944C324.591 225.469 318.916 229.949 312.793 233.384C306.671 236.669 300.399 238.312 293.977 238.312C285.764 238.312 279.044 236.744 273.817 233.608C268.591 230.323 265.977 225.768 265.977 219.944C265.977 216.211 267.097 213.523 269.337 211.88C271.727 210.237 274.415 209.416 277.401 209.416C280.836 209.416 283.673 210.611 285.913 213C288.303 215.24 289.497 219.123 289.497 224.648C289.497 226.888 289.945 228.605 290.841 229.8C291.737 230.995 293.529 231.592 296.217 231.592C299.951 231.592 303.535 230.323 306.969 227.784C310.404 225.096 313.54 221.587 316.377 217.256C319.364 212.776 321.977 207.773 324.217 202.248C326.457 196.723 328.175 191.048 329.369 185.224C330.564 179.251 331.161 173.576 331.161 168.2C331.161 159.987 328.1 155.88 321.977 155.88C319.14 155.88 315.929 157.149 312.345 159.688C308.911 162.227 305.401 165.661 301.817 169.992C298.383 174.173 295.097 178.952 291.961 184.328C288.975 189.555 286.361 194.856 284.121 200.232L250.745 283.112C249.401 286.547 250.745 289.011 254.777 290.504L264.185 293.192L262.617 297H209.305ZM245.817 189.032L242.681 184.552C251.044 180.072 257.839 175.667 263.065 171.336C268.292 166.856 272.548 162.376 275.833 157.896C279.268 153.416 282.255 148.936 284.793 144.456C287.332 139.827 290.02 135.123 292.857 130.344C293.604 129.149 294.724 128.253 296.217 127.656C297.711 126.909 299.652 126.536 302.041 126.536C304.132 126.536 305.999 126.909 307.641 127.656C309.284 128.253 309.881 129.149 309.433 130.344C307.044 136.467 302.937 143.187 297.113 150.504C291.289 157.672 283.972 164.691 275.161 171.56C266.5 178.429 256.719 184.253 245.817 189.032ZM354.977 243.688L387.233 162.6C388.129 160.36 388.428 158.717 388.129 157.672C387.98 156.627 387.308 156.104 386.113 156.104C384.769 156.104 382.678 157.523 379.841 160.36C377.004 163.197 373.942 166.632 370.657 170.664C367.521 174.696 364.758 178.579 362.369 182.312L357.889 179.4C367.297 166.109 375.286 156.253 381.857 149.832C388.577 143.411 394.924 140.2 400.897 140.2C406.124 140.2 409.708 142.067 411.649 145.8C413.59 149.384 413.292 154.163 410.753 160.136L393.505 199.784H393.953C397.089 194.109 400.598 187.837 404.481 180.968C408.513 174.099 412.769 167.603 417.249 161.48C421.878 155.208 426.806 150.056 432.033 146.024C437.26 141.992 442.71 139.976 448.385 139.976C453.612 139.976 457.569 141.395 460.257 144.232C463.094 146.92 464.513 150.205 464.513 154.088C464.513 158.717 463.094 162.376 460.257 165.064C457.569 167.752 454.508 169.096 451.073 169.096C449.132 169.096 447.564 168.648 446.369 167.752C445.174 166.856 444.278 165.885 443.681 164.84C442.636 162.749 441.59 160.957 440.545 159.464C439.649 157.821 438.156 157 436.065 157C432.78 157 428.748 159.315 423.969 163.944C419.34 168.424 414.337 174.621 408.961 182.536C403.734 190.451 398.508 199.485 393.281 209.64C388.054 219.645 383.201 230.099 378.721 241L354.977 243.688ZM471.448 242.792C464.878 242.792 460.024 240.627 456.888 236.296C453.752 231.816 452.184 226.365 452.184 219.944C452.184 210.536 453.976 201.725 457.56 193.512C461.294 185.149 465.998 177.608 471.672 170.888C477.347 164.019 483.171 158.045 489.144 152.968C494.072 148.787 499.075 145.576 504.152 143.336C509.379 141.096 514.083 139.976 518.264 139.976C523.939 139.976 528.12 141.245 530.808 143.784C533.646 146.323 535.064 149.459 535.064 153.192C535.064 158.568 532.899 163.944 528.568 169.32C524.387 174.696 517.443 179.549 507.736 183.88C498.03 188.061 484.814 191.272 468.088 193.512L468.536 187.016C478.392 186.269 486.606 184.328 493.176 181.192C499.747 177.907 504.6 174.248 507.736 170.216C511.022 166.035 512.664 162.301 512.664 159.016C512.664 154.984 510.723 152.968 506.84 152.968C502.808 152.968 498.851 154.611 494.968 157.896C491.235 161.032 487.8 165.213 484.664 170.44C481.678 175.667 479.214 181.341 477.272 187.464C475.48 193.587 474.584 199.635 474.584 205.608C474.584 211.432 475.704 215.837 477.944 218.824C480.334 221.661 483.768 223.08 488.248 223.08C491.384 223.08 494.595 222.259 497.88 220.616C501.166 218.973 504.526 216.435 507.96 213C511.395 209.416 514.68 204.936 517.816 199.56L522.072 202.248C517.891 209.565 512.888 216.285 507.064 222.408C501.24 228.531 495.192 233.459 488.92 237.192C482.648 240.925 476.824 242.792 471.448 242.792ZM555.303 242.792C549.628 242.792 544.402 241.821 539.623 239.88C534.844 237.939 531.036 235.027 528.199 231.144C525.362 227.112 523.943 222.259 523.943 216.584C523.943 211.507 525.287 207.773 527.975 205.384C530.663 202.845 533.5 201.576 536.487 201.576C539.474 201.576 542.087 202.547 544.327 204.488C546.716 206.28 547.911 208.744 547.911 211.88C547.911 213.672 547.538 215.24 546.791 216.584C546.044 217.779 545.298 218.899 544.551 219.944C543.506 221.139 542.535 222.333 541.639 223.528C540.743 224.723 540.295 226.141 540.295 227.784C540.295 230.024 541.714 232.04 544.551 233.832C547.388 235.475 550.674 236.296 554.407 236.296C558.887 236.296 562.62 234.877 565.607 232.04C568.594 229.053 570.087 224.573 570.087 218.6C570.087 215.165 569.191 211.731 567.399 208.296C565.607 204.712 563.367 201.053 560.679 197.32C557.394 192.541 554.258 187.688 551.271 182.76C548.434 177.832 547.015 172.307 547.015 166.184C547.015 161.256 548.284 156.851 550.823 152.968C553.362 148.936 557.02 145.725 561.799 143.336C566.578 140.947 572.178 139.752 578.599 139.752C586.066 139.752 592.562 141.544 598.087 145.128C603.762 148.563 606.599 153.789 606.599 160.808C606.599 163.645 605.703 166.184 603.911 168.424C602.119 170.515 599.506 171.56 596.071 171.56C592.487 171.56 589.874 170.589 588.231 168.648C586.588 166.707 585.767 164.317 585.767 161.48C585.767 161.032 585.767 160.509 585.767 159.912C585.916 159.165 586.066 158.493 586.215 157.896C586.364 157.149 586.514 156.403 586.663 155.656C586.812 154.76 586.887 154.088 586.887 153.64C586.887 151.4 585.991 149.533 584.199 148.04C582.407 146.547 580.018 145.8 577.031 145.8C574.194 145.8 571.655 146.845 569.415 148.936C567.175 151.027 566.055 154.461 566.055 159.24C566.055 162.973 567.25 166.931 569.639 171.112C572.178 175.144 574.791 179.027 577.479 182.76C580.914 187.389 583.826 191.795 586.215 195.976C588.604 200.008 589.799 205.384 589.799 212.104C589.799 218.973 588.082 224.723 584.647 229.352C581.362 233.832 577.031 237.192 571.655 239.432C566.428 241.672 560.978 242.792 555.303 242.792ZM631.964 242.792C626.289 242.792 621.062 241.821 616.284 239.88C611.505 237.939 607.697 235.027 604.86 231.144C602.022 227.112 600.604 222.259 600.604 216.584C600.604 211.507 601.948 207.773 604.636 205.384C607.324 202.845 610.161 201.576 613.148 201.576C616.134 201.576 618.748 202.547 620.988 204.488C623.377 206.28 624.572 208.744 624.572 211.88C624.572 213.672 624.198 215.24 623.452 216.584C622.705 217.779 621.958 218.899 621.212 219.944C620.166 221.139 619.196 222.333 618.3 223.528C617.404 224.723 616.956 226.141 616.956 227.784C616.956 230.024 618.374 232.04 621.212 233.832C624.049 235.475 627.334 236.296 631.068 236.296C635.548 236.296 639.281 234.877 642.268 232.04C645.254 229.053 646.748 224.573 646.748 218.6C646.748 215.165 645.852 211.731 644.06 208.296C642.268 204.712 640.028 201.053 637.34 197.32C634.054 192.541 630.918 187.688 627.932 182.76C625.094 177.832 623.676 172.307 623.676 166.184C623.676 161.256 624.945 156.851 627.484 152.968C630.022 148.936 633.681 145.725 638.46 143.336C643.238 140.947 648.838 139.752 655.26 139.752C662.726 139.752 669.222 141.544 674.748 145.128C680.422 148.563 683.26 153.789 683.26 160.808C683.26 163.645 682.364 166.184 680.572 168.424C678.78 170.515 676.166 171.56 672.732 171.56C669.148 171.56 666.534 170.589 664.892 168.648C663.249 166.707 662.428 164.317 662.428 161.48C662.428 161.032 662.428 160.509 662.428 159.912C662.577 159.165 662.726 158.493 662.876 157.896C663.025 157.149 663.174 156.403 663.324 155.656C663.473 154.76 663.548 154.088 663.548 153.64C663.548 151.4 662.652 149.533 660.86 148.04C659.068 146.547 656.678 145.8 653.692 145.8C650.854 145.8 648.316 146.845 646.076 148.936C643.836 151.027 642.716 154.461 642.716 159.24C642.716 162.973 643.91 166.931 646.3 171.112C648.838 175.144 651.452 179.027 654.14 182.76C657.574 187.389 660.486 191.795 662.876 195.976C665.265 200.008 666.46 205.384 666.46 212.104C666.46 218.973 664.742 224.723 661.308 229.352C658.022 233.832 653.692 237.192 648.316 239.432C643.089 241.672 637.638 242.792 631.964 242.792ZM722.235 243.016C712.081 243.016 703.793 240.403 697.371 235.176C690.95 229.8 687.739 221.96 687.739 211.656C687.739 201.8 689.307 192.616 692.443 184.104C695.729 175.443 700.059 167.827 705.435 161.256C710.961 154.536 717.158 149.309 724.027 145.576C731.046 141.843 738.214 139.976 745.531 139.976C755.985 139.976 764.123 142.963 769.947 148.936C775.771 154.909 778.683 162.451 778.683 171.56C778.683 181.117 777.19 190.227 774.203 198.888C771.217 207.4 767.11 215.016 761.883 221.736C756.657 228.307 750.609 233.533 743.739 237.416C737.019 241.149 729.851 243.016 722.235 243.016ZM717.755 235.848C721.339 235.848 724.998 234.056 728.731 230.472C732.614 226.888 736.273 222.259 739.707 216.584C743.142 210.76 746.203 204.488 748.891 197.768C751.729 191.048 753.969 184.552 755.611 178.28C757.254 171.859 758.075 166.333 758.075 161.704C758.075 152.147 754.939 147.368 748.667 147.368C745.083 147.368 741.425 149.16 737.691 152.744C733.958 156.328 730.299 160.957 726.715 166.632C723.281 172.307 720.219 178.504 717.531 185.224C714.843 191.944 712.678 198.515 711.035 204.936C709.393 211.208 708.571 216.659 708.571 221.288C708.571 225.917 709.393 229.501 711.035 232.04C712.678 234.579 714.918 235.848 717.755 235.848Z" fill="white"/>
<path d="M708.444 234.296C708.395 234.548 707.505 235.844 708.056 235.844C709.052 235.844 709.972 235.834 710.911 235.439C717.046 232.854 723.162 225.497 725.95 219.705C728.145 215.146 729.769 210.147 730.65 205.161C731.731 199.046 731.772 192.882 733.51 186.871C735.885 178.652 739.307 171.778 744.292 164.851C748.769 158.629 754.218 152.444 761.646 149.896" stroke="white" stroke-width="3" stroke-linecap="round" stroke-linejoin="round"/>
</mask>
<g mask="url(#mask0_8_256)">
<rect x="-19" y="26" width="863" height="310" fill="white"/>
</g>
</svg>
