<svg width="141" height="39" viewBox="0 0 141 39" fill="none" xmlns="http://www.w3.org/2000/svg">
<path d="M1 27.9783L1.36023 27.0964L3.56165 26.6555C4.22874 26.5219 4.74908 26.3882 5.12265 26.2546C5.49622 26.0943 5.78975 25.8671 6.00322 25.5731C6.24337 25.2792 6.47018 24.8516 6.68365 24.2904L14.6088 4.68797C14.9556 3.83279 15.049 3.27158 14.8889 3.00433C14.7555 2.73709 14.2619 2.50993 13.408 2.32286L11.5268 1.88191L11.887 1H34.8217C34.5816 1.37414 34.3681 1.74828 34.1813 2.12243C34.0212 2.46984 33.8745 2.83062 33.7411 3.20477C33.3942 4.03323 33.1273 4.84832 32.9405 5.65005C32.7538 6.42506 32.5536 7.24016 32.3402 8.09534H31.4596C31.4596 7.02636 31.2861 6.06428 30.9393 5.2091C30.619 4.32719 30.0987 3.63236 29.3782 3.12459C28.6578 2.5901 27.6972 2.32286 26.4964 2.32286H21.173L16.8102 13.0661H21.9335C22.8407 13.0661 23.6145 12.9458 24.255 12.7053C24.8954 12.4648 25.4424 12.1174 25.896 11.6631C26.3763 11.2087 26.7899 10.6609 27.1368 10.0195L28.2175 8.17552H29.0981L24.6152 19.2795H23.7346L24.1349 17.3554C24.3483 16.42 24.2816 15.6984 23.9347 15.1907C23.5879 14.6562 22.774 14.3889 21.4932 14.3889H16.2898L12.7275 23.208C12.4073 23.983 12.1805 24.6378 12.0471 25.1723C11.9137 25.68 11.9937 26.0542 12.2873 26.2947C12.5808 26.5352 13.1812 26.6555 14.0884 26.6555H17.0503C18.0109 26.6555 18.9182 26.5218 19.7721 26.2546C20.6526 25.9606 21.4932 25.5598 22.2937 25.052C23.1209 24.5175 23.9481 23.8895 24.7753 23.1679L27.457 20.7627H28.3376C27.5904 21.9386 26.87 23.1278 26.1762 24.3304C25.5091 25.533 24.922 26.749 24.4151 27.9783H1Z" fill="#46332A"/>
<path d="M34.7777 28.299C33.7637 28.299 32.8297 28.1253 31.9759 27.7779C31.122 27.4305 30.4415 26.9094 29.9345 26.2145C29.4276 25.493 29.1741 24.6244 29.1741 23.6089C29.1741 22.7003 29.4142 22.0321 29.8945 21.6046C30.3748 21.1502 30.8818 20.9231 31.4155 20.9231C31.9492 20.9231 32.4161 21.0968 32.8164 21.4442C33.2433 21.7649 33.4568 22.2059 33.4568 22.7671C33.4568 23.0878 33.3901 23.3684 33.2567 23.6089C33.1233 23.8227 32.9898 24.0231 32.8564 24.2102C32.6696 24.424 32.4962 24.6378 32.3361 24.8516C32.176 25.0654 32.0959 25.3193 32.0959 25.6132C32.0959 26.0141 32.3494 26.3749 32.8564 26.6956C33.3634 26.9895 33.9505 27.1365 34.6176 27.1365C35.4181 27.1365 36.0852 26.8826 36.6188 26.3749C37.1525 25.8404 37.4194 25.0386 37.4194 23.9697C37.4194 23.355 37.2593 22.7403 36.939 22.1257C36.6188 21.4843 36.2186 20.8295 35.7383 20.1614C35.1512 19.3062 34.5909 18.4377 34.0572 17.5558C33.5502 16.6739 33.2967 15.6851 33.2967 14.5894C33.2967 13.7075 33.5235 12.9191 33.9771 12.2243C34.4308 11.5027 35.0845 10.9281 35.9384 10.5005C36.7923 10.073 37.7929 9.85916 38.9403 9.85916C40.2745 9.85916 41.4353 10.1798 42.4226 10.8212C43.4366 11.4359 43.9436 12.3713 43.9436 13.6273C43.9436 14.1351 43.7835 14.5894 43.4632 14.9903C43.143 15.3644 42.6761 15.5515 42.0623 15.5515C41.4219 15.5515 40.955 15.3778 40.6614 15.0303C40.3679 14.6829 40.2212 14.2553 40.2212 13.7476C40.2212 13.6674 40.2212 13.5739 40.2212 13.467C40.2478 13.3333 40.2745 13.2131 40.3012 13.1062C40.3279 12.9726 40.3546 12.8389 40.3813 12.7053C40.4079 12.545 40.4213 12.4247 40.4213 12.3445C40.4213 11.9437 40.2612 11.6096 39.941 11.3424C39.6208 11.0751 39.1938 10.9415 38.6602 10.9415C38.1532 10.9415 37.6995 11.1286 37.2993 11.5027C36.899 11.8769 36.6989 12.4915 36.6989 13.3467C36.6989 14.0148 36.9124 14.723 37.3393 15.4713C37.7929 16.1928 38.2599 16.8877 38.7402 17.5558C39.3539 18.3843 39.8743 19.1726 40.3012 19.9209C40.7282 20.6425 40.9416 21.6045 40.9416 22.8071C40.9416 24.0365 40.6348 25.0654 40.021 25.8938C39.434 26.6956 38.6602 27.2969 37.6995 27.6977C36.7656 28.0986 35.7916 28.299 34.7777 28.299Z" fill="#46332A"/>
<path d="M38.2599 38L38.5401 37.3185L39.9009 36.8375C40.3813 36.6771 40.7682 36.4767 41.0617 36.2362C41.3285 35.9957 41.5553 35.6616 41.7421 35.234L51.1882 11.7031L55.9112 8.65656L52.9493 15.4713H53.0694C53.9233 14.3489 54.8572 13.3734 55.8712 12.545C56.8852 11.6898 57.8858 11.035 58.8731 10.5807C59.8871 10.0997 60.8077 9.85916 61.6349 9.85916C62.4621 9.85916 63.1426 10.113 63.6762 10.6208C64.2366 11.1286 64.5168 11.9437 64.5168 13.0661C64.5168 14.2954 64.3167 15.5782 63.9164 16.9144C63.5161 18.2506 62.9558 19.5468 62.2353 20.8028C61.5415 22.0589 60.7277 23.1947 59.7937 24.2102C58.8598 25.199 57.8458 26.0007 56.7518 26.6154C55.6577 27.2033 54.537 27.4973 53.3896 27.4973C51.922 27.4973 50.7212 27.2167 49.7873 26.6555C48.8534 26.0675 48.3864 25.2524 48.3864 24.2102C48.3864 23.5421 48.5865 23.061 48.9868 22.7671C49.4137 22.4731 49.894 22.3261 50.4277 22.3261C51.0414 22.3261 51.5484 22.5399 51.9487 22.9675C52.3756 23.3684 52.5891 24.0632 52.5891 25.052C52.5891 25.4529 52.6692 25.7602 52.8293 25.974C52.9894 26.1878 53.3096 26.2947 53.7899 26.2947C54.457 26.2947 55.0974 26.0675 55.7111 25.6132C56.3248 25.1322 56.8852 24.5042 57.3922 23.7291C57.9259 22.9274 58.3928 22.0321 58.7931 21.0433C59.1934 20.0545 59.5002 19.039 59.7137 17.9967C59.9272 16.9278 60.0339 15.9122 60.0339 14.9502C60.0339 13.4803 59.4869 12.7454 58.3928 12.7454C57.8858 12.7454 57.3121 12.9726 56.6717 13.4269C56.058 13.8812 55.4309 14.4958 54.7905 15.2709C54.1768 16.0191 53.5898 16.8743 53.0294 17.8364C52.4957 18.7718 52.0287 19.7205 51.6285 20.6826L45.6647 35.5146C45.4245 36.1293 45.6647 36.5702 46.3851 36.8375L48.0662 37.3185L47.786 38H38.2599ZM44.7841 18.6782L44.2237 17.8765C45.718 17.0748 46.9321 16.2864 47.8661 15.5114C48.8 14.7096 49.5605 13.9079 50.1475 13.1062C50.7613 12.3044 51.2949 11.5027 51.7486 10.701C52.2022 9.87252 52.6825 9.0307 53.1895 8.17552C53.3229 7.96172 53.523 7.80137 53.7899 7.69447C54.0567 7.56085 54.4036 7.49404 54.8306 7.49404C55.2041 7.49404 55.5377 7.56085 55.8312 7.69447C56.1247 7.80137 56.2315 7.96172 56.1514 8.17552C55.7245 9.27122 54.9907 10.4738 53.95 11.7833C52.9093 13.0661 51.6018 14.3221 50.0275 15.5515C48.4798 16.7808 46.732 17.823 44.7841 18.6782Z" fill="#46332A"/>
<path d="M64.2894 28.4594L70.0532 13.948C70.2133 13.5471 70.2666 13.2532 70.2133 13.0661C70.1866 12.879 70.0665 12.7855 69.853 12.7855C69.6129 12.7855 69.2393 13.0394 68.7323 13.5471C68.2253 14.0549 67.6783 14.6696 67.0912 15.3911C66.5309 16.1127 66.0372 16.8075 65.6103 17.4756L64.8098 16.9545C66.4909 14.576 67.9184 12.8122 69.0925 11.6631C70.2933 10.5139 71.4274 9.93933 72.4947 9.93933C73.4287 9.93933 74.0691 10.2734 74.416 10.9415C74.7628 11.5829 74.7095 12.4381 74.2559 13.507L71.1739 20.6024H71.2539C71.8143 19.5869 72.4414 18.4644 73.1351 17.2351C73.8556 16.0058 74.6161 14.8433 75.4166 13.7476C76.2438 12.6251 77.1244 11.7031 78.0583 10.9816C78.9922 10.26 79.9662 9.89924 80.9802 9.89924C81.9141 9.89924 82.6212 10.1531 83.1015 10.6609C83.6085 11.1419 83.862 11.7299 83.862 12.4247C83.862 13.2532 83.6085 13.9079 83.1015 14.3889C82.6212 14.87 82.0742 15.1105 81.4605 15.1105C81.1136 15.1105 80.8334 15.0303 80.6199 14.87C80.4065 14.7096 80.2464 14.5359 80.1396 14.3489C79.9529 13.9747 79.7661 13.654 79.5793 13.3868C79.4192 13.0928 79.1523 12.9458 78.7788 12.9458C78.1917 12.9458 77.4713 13.3601 76.6174 14.1885C75.7902 14.9902 74.8963 16.0993 73.9356 17.5157C73.0017 18.9321 72.0678 20.5489 71.1339 22.3662C70.1999 24.1567 69.3327 26.0274 68.5322 27.9783L64.2894 28.4594Z" fill="#46332A"/>
<path d="M85.1013 28.299C83.9272 28.299 83.06 27.9115 82.4996 27.1365C81.9392 26.3348 81.659 25.3593 81.659 24.2102C81.659 22.5265 81.9793 20.9498 82.6197 19.48C83.2868 17.9834 84.1273 16.6338 85.1413 15.4312C86.1553 14.2019 87.1959 13.1329 88.2633 12.2243C89.1439 11.476 90.0378 10.9014 90.945 10.5005C91.879 10.0997 92.7195 9.89924 93.4666 9.89924C94.4806 9.89924 95.2278 10.1264 95.7081 10.5807C96.2151 11.035 96.4686 11.5962 96.4686 12.2644C96.4686 13.2264 96.0817 14.1885 95.3078 15.1506C94.5607 16.1127 93.3199 16.9812 91.5854 17.7562C89.851 18.5045 87.4895 19.0791 84.5009 19.48L84.5809 18.3174C86.3421 18.1838 87.8097 17.8364 88.9838 17.2752C90.1578 16.6873 91.0251 16.0325 91.5854 15.3109C92.1725 14.5627 92.466 13.8945 92.466 13.3066C92.466 12.585 92.1191 12.2243 91.4253 12.2243C90.7049 12.2243 89.9977 12.5182 89.304 13.1062C88.6369 13.6674 88.0231 14.4157 87.4628 15.351C86.9291 16.2864 86.4888 17.3019 86.1419 18.3976C85.8217 19.4933 85.6616 20.5757 85.6616 21.6446C85.6616 22.6869 85.8618 23.4753 86.262 24.0098C86.6889 24.5175 87.3027 24.7714 88.1032 24.7714C88.6636 24.7714 89.2373 24.6244 89.8243 24.3304C90.4113 24.0365 91.0117 23.5822 91.6255 22.9675C92.2392 22.3261 92.8262 21.5244 93.3866 20.5623L94.1471 21.0433C93.3999 22.3528 92.506 23.5554 91.4654 24.6511C90.4247 25.7468 89.344 26.6287 88.2233 27.2969C87.1026 27.965 86.0619 28.299 85.1013 28.299Z" fill="#46332A"/>
<path d="M100.085 28.299C99.071 28.299 98.137 28.1253 97.2832 27.7779C96.4293 27.4305 95.7488 26.9094 95.2418 26.2145C94.7348 25.493 94.4814 24.6244 94.4814 23.6089C94.4814 22.7003 94.7215 22.0321 95.2018 21.6046C95.6821 21.1502 96.1891 20.9231 96.7228 20.9231C97.2565 20.9231 97.7234 21.0968 98.1237 21.4442C98.5506 21.7649 98.7641 22.2059 98.7641 22.7671C98.7641 23.0878 98.6974 23.3684 98.564 23.6089C98.4306 23.8227 98.2971 24.0231 98.1637 24.2102C97.9769 24.424 97.8035 24.6378 97.6434 24.8516C97.4833 25.0654 97.4032 25.3193 97.4032 25.6132C97.4032 26.0141 97.6567 26.3749 98.1637 26.6956C98.6707 26.9895 99.2578 27.1365 99.9249 27.1365C100.725 27.1365 101.392 26.8826 101.926 26.3749C102.46 25.8404 102.727 25.0386 102.727 23.9697C102.727 23.355 102.567 22.7403 102.246 22.1257C101.926 21.4843 101.526 20.8295 101.046 20.1614C100.459 19.3062 99.8982 18.4377 99.3645 17.5558C98.8575 16.6739 98.604 15.6851 98.604 14.5894C98.604 13.7075 98.8308 12.9191 99.2844 12.2243C99.7381 11.5027 100.392 10.9281 101.246 10.5005C102.1 10.073 103.1 9.85916 104.248 9.85916C105.582 9.85916 106.743 10.1798 107.73 10.8212C108.744 11.4359 109.251 12.3713 109.251 13.6273C109.251 14.1351 109.091 14.5894 108.771 14.9903C108.45 15.3644 107.983 15.5515 107.37 15.5515C106.729 15.5515 106.262 15.3778 105.969 15.0303C105.675 14.6829 105.528 14.2553 105.528 13.7476C105.528 13.6674 105.528 13.5739 105.528 13.467C105.555 13.3333 105.582 13.2131 105.609 13.1062C105.635 12.9726 105.662 12.8389 105.689 12.7053C105.715 12.545 105.729 12.4247 105.729 12.3445C105.729 11.9437 105.568 11.6096 105.248 11.3424C104.928 11.0751 104.501 10.9415 103.967 10.9415C103.46 10.9415 103.007 11.1286 102.607 11.5027C102.206 11.8769 102.006 12.4915 102.006 13.3467C102.006 14.0148 102.22 14.723 102.647 15.4713C103.1 16.1928 103.567 16.8877 104.048 17.5558C104.661 18.3843 105.182 19.1726 105.609 19.9209C106.035 20.6425 106.249 21.6045 106.249 22.8071C106.249 24.0365 105.942 25.0654 105.328 25.8938C104.741 26.6956 103.967 27.2969 103.007 27.6977C102.073 28.0986 101.099 28.299 100.085 28.299Z" fill="#46332A"/>
<path d="M113.783 28.299C112.769 28.299 111.835 28.1253 110.981 27.7779C110.127 27.4305 109.447 26.9094 108.94 26.2145C108.433 25.493 108.18 24.6244 108.18 23.6089C108.18 22.7003 108.42 22.0321 108.9 21.6046C109.38 21.1502 109.887 20.9231 110.421 20.9231C110.955 20.9231 111.422 21.0968 111.822 21.4442C112.249 21.7649 112.462 22.2059 112.462 22.7671C112.462 23.0878 112.396 23.3684 112.262 23.6089C112.129 23.8227 111.995 24.0231 111.862 24.2102C111.675 24.424 111.502 24.6378 111.342 24.8516C111.181 25.0654 111.101 25.3193 111.101 25.6132C111.101 26.0141 111.355 26.3749 111.862 26.6956C112.369 26.9895 112.956 27.1365 113.623 27.1365C114.424 27.1365 115.091 26.8826 115.624 26.3749C116.158 25.8404 116.425 25.0386 116.425 23.9697C116.425 23.355 116.265 22.7403 115.945 22.1257C115.624 21.4843 115.224 20.8295 114.744 20.1614C114.157 19.3062 113.596 18.4377 113.063 17.5558C112.556 16.6739 112.302 15.6851 112.302 14.5894C112.302 13.7075 112.529 12.9191 112.983 12.2243C113.436 11.5027 114.09 10.9281 114.944 10.5005C115.798 10.073 116.798 9.85916 117.946 9.85916C119.28 9.85916 120.441 10.1798 121.428 10.8212C122.442 11.4359 122.949 12.3713 122.949 13.6273C122.949 14.1351 122.789 14.5894 122.469 14.9903C122.149 15.3644 121.682 15.5515 121.068 15.5515C120.427 15.5515 119.96 15.3778 119.667 15.0303C119.373 14.6829 119.227 14.2553 119.227 13.7476C119.227 13.6674 119.227 13.5739 119.227 13.467C119.253 13.3333 119.28 13.2131 119.307 13.1062C119.333 12.9726 119.36 12.8389 119.387 12.7053C119.413 12.545 119.427 12.4247 119.427 12.3445C119.427 11.9437 119.267 11.6096 118.946 11.3424C118.626 11.0751 118.199 10.9415 117.666 10.9415C117.159 10.9415 116.705 11.1286 116.305 11.5027C115.905 11.8769 115.704 12.4915 115.704 13.3467C115.704 14.0148 115.918 14.723 116.345 15.4713C116.798 16.1928 117.265 16.8877 117.746 17.5558C118.359 18.3843 118.88 19.1726 119.307 19.9209C119.734 20.6425 119.947 21.6045 119.947 22.8071C119.947 24.0365 119.64 25.0654 119.027 25.8938C118.439 26.6956 117.666 27.2969 116.705 27.6977C115.771 28.0986 114.797 28.299 113.783 28.299Z" fill="#46332A"/>
<path d="M129.914 28.3391C128.099 28.3391 126.618 27.8714 125.471 26.9361C124.323 25.974 123.75 24.571 123.75 22.727C123.75 20.9632 124.03 19.3196 124.59 17.7963C125.177 16.2463 125.951 14.8834 126.912 13.7075C127.899 12.5049 129.006 11.5695 130.234 10.9014C131.488 10.2333 132.769 9.89924 134.076 9.89924C135.944 9.89924 137.398 10.4337 138.439 11.5027C139.48 12.5717 140 13.9213 140 15.5515C140 17.2618 139.733 18.892 139.199 20.442C138.666 21.9653 137.932 23.3283 136.998 24.5309C136.064 25.7068 134.983 26.6421 133.756 27.3369C132.555 28.0051 131.274 28.3391 129.914 28.3391ZM129.113 27.0563C129.753 27.0563 130.407 26.7356 131.074 26.0943C131.768 25.4529 132.422 24.6244 133.036 23.6089C133.649 22.5666 134.196 21.4442 134.677 20.2416C135.184 19.039 135.584 17.8765 135.877 16.7541C136.171 15.6049 136.318 14.6161 136.318 13.7877C136.318 12.0773 135.757 11.2221 134.637 11.2221C133.996 11.2221 133.342 11.5428 132.675 12.1842C132.008 12.8256 131.354 13.654 130.714 14.6696C130.1 15.6851 129.553 16.7942 129.073 17.9967C128.593 19.1994 128.206 20.3752 127.912 21.5244C127.619 22.6468 127.472 23.6222 127.472 24.4507C127.472 25.2792 127.619 25.9205 127.912 26.3749C128.206 26.8292 128.606 27.0563 129.113 27.0563Z" fill="#46332A"/>
<path d="M127.449 26.7787C127.44 26.8238 127.281 27.0556 127.38 27.0556C127.558 27.0556 127.722 27.0539 127.89 26.9831C128.986 26.5206 130.079 25.204 130.577 24.1674C130.969 23.3516 131.26 22.4569 131.417 21.5647C131.61 20.4704 131.618 19.3671 131.928 18.2914C132.353 16.8206 132.964 15.5904 133.855 14.3508C134.655 13.2374 135.628 12.1305 136.956 11.6745M1 27.9783L1.36023 27.0964L3.56165 26.6555C4.22874 26.5219 4.74908 26.3882 5.12265 26.2546C5.49622 26.0943 5.78975 25.8671 6.00322 25.5731C6.24337 25.2792 6.47018 24.8516 6.68365 24.2904L14.6088 4.68797C14.9556 3.83279 15.049 3.27158 14.8889 3.00433C14.7555 2.73709 14.2619 2.50993 13.408 2.32286L11.5268 1.88191L11.887 1H34.8217C34.5816 1.37414 34.3681 1.74828 34.1813 2.12243C34.0212 2.46984 33.8745 2.83062 33.7411 3.20477C33.3942 4.03323 33.1273 4.84832 32.9405 5.65005C32.7538 6.42506 32.5536 7.24016 32.3402 8.09534H31.4596C31.4596 7.02636 31.2861 6.06428 30.9393 5.2091C30.619 4.32719 30.0987 3.63236 29.3782 3.12459C28.6578 2.5901 27.6972 2.32286 26.4964 2.32286H21.173L16.8102 13.0661H21.9335C22.8407 13.0661 23.6145 12.9458 24.255 12.7053C24.8954 12.4648 25.4424 12.1174 25.896 11.6631C26.3763 11.2087 26.7899 10.6609 27.1368 10.0195L28.2175 8.17552H29.0981L24.6152 19.2795H23.7346L24.1349 17.3554C24.3483 16.42 24.2816 15.6984 23.9347 15.1907C23.5879 14.6562 22.774 14.3889 21.4932 14.3889H16.2898L12.7275 23.208C12.4073 23.983 12.1805 24.6378 12.0471 25.1723C11.9137 25.68 11.9937 26.0542 12.2873 26.2947C12.5808 26.5352 13.1812 26.6555 14.0884 26.6555H17.0503C18.0109 26.6555 18.9182 26.5218 19.7721 26.2546C20.6526 25.9606 21.4932 25.5598 22.2937 25.052C23.1209 24.5175 23.9481 23.8895 24.7753 23.1679L27.457 20.7627H28.3376C27.5904 21.9386 26.87 23.1278 26.1762 24.3304C25.5091 25.533 24.922 26.749 24.4151 27.9783H1ZM34.7777 28.299C33.7637 28.299 32.8297 28.1253 31.9759 27.7779C31.122 27.4305 30.4415 26.9094 29.9345 26.2145C29.4276 25.493 29.1741 24.6244 29.1741 23.6089C29.1741 22.7003 29.4142 22.0321 29.8945 21.6046C30.3748 21.1502 30.8818 20.9231 31.4155 20.9231C31.9492 20.9231 32.4161 21.0968 32.8164 21.4442C33.2433 21.7649 33.4568 22.2059 33.4568 22.7671C33.4568 23.0878 33.3901 23.3684 33.2567 23.6089C33.1233 23.8227 32.9898 24.0231 32.8564 24.2102C32.6696 24.424 32.4962 24.6378 32.3361 24.8516C32.176 25.0654 32.0959 25.3192 32.0959 25.6132C32.0959 26.0141 32.3494 26.3749 32.8564 26.6956C33.3634 26.9895 33.9505 27.1365 34.6176 27.1365C35.4181 27.1365 36.0852 26.8826 36.6188 26.3749C37.1525 25.8404 37.4194 25.0386 37.4194 23.9697C37.4194 23.355 37.2593 22.7403 36.939 22.1257C36.6188 21.4843 36.2186 20.8295 35.7383 20.1614C35.1512 19.3062 34.5909 18.4377 34.0572 17.5558C33.5502 16.6739 33.2967 15.6851 33.2967 14.5894C33.2967 13.7075 33.5235 12.9191 33.9771 12.2243C34.4308 11.5027 35.0845 10.9281 35.9384 10.5005C36.7923 10.073 37.7929 9.85916 38.9403 9.85916C40.2745 9.85916 41.4353 10.1798 42.4226 10.8212C43.4366 11.4359 43.9436 12.3713 43.9436 13.6273C43.9436 14.1351 43.7834 14.5894 43.4632 14.9903C43.143 15.3644 42.6761 15.5515 42.0623 15.5515C41.4219 15.5515 40.955 15.3778 40.6614 15.0303C40.3679 14.6829 40.2212 14.2553 40.2212 13.7476C40.2212 13.6674 40.2212 13.5739 40.2212 13.467C40.2478 13.3333 40.2745 13.2131 40.3012 13.1062C40.3279 12.9726 40.3546 12.8389 40.3813 12.7053C40.4079 12.545 40.4213 12.4247 40.4213 12.3445C40.4213 11.9437 40.2612 11.6096 39.941 11.3424C39.6208 11.0751 39.1938 10.9415 38.6602 10.9415C38.1532 10.9415 37.6995 11.1286 37.2993 11.5027C36.899 11.8769 36.6989 12.4915 36.6989 13.3467C36.6989 14.0148 36.9124 14.723 37.3393 15.4713C37.7929 16.1928 38.2599 16.8877 38.7402 17.5558C39.3539 18.3843 39.8743 19.1726 40.3012 19.9209C40.7282 20.6425 40.9416 21.6045 40.9416 22.8071C40.9416 24.0365 40.6348 25.0654 40.021 25.8938C39.434 26.6956 38.6602 27.2969 37.6995 27.6977C36.7656 28.0986 35.7916 28.299 34.7777 28.299ZM38.2599 38L38.5401 37.3185L39.9009 36.8375C40.3813 36.6771 40.7682 36.4767 41.0617 36.2362C41.3285 35.9957 41.5553 35.6616 41.7421 35.234L51.1882 11.7031L55.9112 8.65656L52.9493 15.4713H53.0694C53.9233 14.3489 54.8572 13.3734 55.8712 12.545C56.8852 11.6898 57.8858 11.035 58.8732 10.5807C59.8871 10.0997 60.8077 9.85916 61.6349 9.85916C62.4621 9.85916 63.1426 10.113 63.6762 10.6208C64.2366 11.1286 64.5168 11.9437 64.5168 13.0661C64.5168 14.2954 64.3166 15.5782 63.9164 16.9144C63.5161 18.2506 62.9558 19.5468 62.2353 20.8028C61.5415 22.0589 60.7277 23.1947 59.7937 24.2102C58.8598 25.199 57.8458 26.0007 56.7518 26.6154C55.6577 27.2033 54.537 27.4973 53.3896 27.4973C51.922 27.4973 50.7212 27.2167 49.7873 26.6555C48.8534 26.0675 48.3864 25.2524 48.3864 24.2102C48.3864 23.5421 48.5865 23.061 48.9868 22.7671C49.4137 22.4731 49.894 22.3261 50.4277 22.3261C51.0414 22.3261 51.5484 22.5399 51.9487 22.9675C52.3756 23.3684 52.5891 24.0632 52.5891 25.052C52.5891 25.4529 52.6692 25.7602 52.8293 25.974C52.9894 26.1878 53.3096 26.2947 53.7899 26.2947C54.457 26.2947 55.0974 26.0675 55.7111 25.6132C56.3248 25.1322 56.8852 24.5042 57.3922 23.7291C57.9259 22.9274 58.3928 22.0321 58.7931 21.0433C59.1934 20.0545 59.5002 19.039 59.7137 17.9967C59.9272 16.9278 60.0339 15.9122 60.0339 14.9502C60.0339 13.4803 59.4869 12.7454 58.3928 12.7454C57.8859 12.7454 57.3121 12.9726 56.6717 13.4269C56.058 13.8812 55.4309 14.4958 54.7905 15.2709C54.1768 16.0191 53.5898 16.8743 53.0294 17.8364C52.4957 18.7718 52.0287 19.7205 51.6285 20.6826L45.6647 35.5146C45.4245 36.1293 45.6647 36.5702 46.3851 36.8375L48.0662 37.3185L47.786 38H38.2599ZM44.7841 18.6782L44.2237 17.8765C45.718 17.0748 46.9321 16.2864 47.8661 15.5114C48.8 14.7096 49.5605 13.9079 50.1475 13.1062C50.7613 12.3044 51.2949 11.5027 51.7486 10.701C52.2022 9.87252 52.6825 9.0307 53.1895 8.17552C53.3229 7.96172 53.523 7.80137 53.7899 7.69447C54.0567 7.56085 54.4036 7.49404 54.8306 7.49404C55.2041 7.49404 55.5377 7.56085 55.8312 7.69447C56.1247 7.80137 56.2315 7.96172 56.1514 8.17552C55.7245 9.27122 54.9907 10.4738 53.95 11.7833C52.9093 13.0661 51.6018 14.3221 50.0275 15.5515C48.4798 16.7808 46.732 17.823 44.7841 18.6782ZM64.2894 28.4594L70.0532 13.948C70.2133 13.5471 70.2666 13.2532 70.2133 13.0661C70.1866 12.879 70.0665 12.7855 69.853 12.7855C69.6129 12.7855 69.2393 13.0394 68.7323 13.5471C68.2253 14.0549 67.6783 14.6696 67.0912 15.3911C66.5309 16.1127 66.0372 16.8075 65.6103 17.4756L64.8098 16.9545C66.4909 14.576 67.9184 12.8122 69.0925 11.6631C70.2933 10.5139 71.4274 9.93933 72.4947 9.93933C73.4287 9.93933 74.0691 10.2734 74.416 10.9415C74.7628 11.5829 74.7095 12.4381 74.2559 13.507L71.1739 20.6024H71.2539C71.8143 19.5869 72.4414 18.4644 73.1351 17.2351C73.8556 16.0058 74.6161 14.8433 75.4166 13.7476C76.2438 12.6251 77.1244 11.7031 78.0583 10.9816C78.9922 10.26 79.9662 9.89924 80.9802 9.89924C81.9141 9.89924 82.6212 10.1531 83.1015 10.6609C83.6085 11.1419 83.862 11.7299 83.862 12.4247C83.862 13.2532 83.6085 13.9079 83.1015 14.3889C82.6212 14.87 82.0742 15.1105 81.4605 15.1105C81.1136 15.1105 80.8334 15.0303 80.6199 14.87C80.4065 14.7096 80.2464 14.5359 80.1396 14.3489C79.9528 13.9747 79.7661 13.654 79.5793 13.3868C79.4192 13.0928 79.1523 12.9458 78.7788 12.9458C78.1917 12.9458 77.4713 13.3601 76.6174 14.1885C75.7902 14.9902 74.8963 16.0993 73.9356 17.5157C73.0017 18.9321 72.0678 20.5489 71.1338 22.3662C70.1999 24.1567 69.3327 26.0274 68.5322 27.9783L64.2894 28.4594ZM85.1013 28.299C83.9272 28.299 83.06 27.9115 82.4996 27.1365C81.9392 26.3348 81.659 25.3593 81.659 24.2102C81.659 22.5265 81.9793 20.9498 82.6197 19.48C83.2868 17.9834 84.1273 16.6338 85.1413 15.4312C86.1553 14.2019 87.1959 13.1329 88.2633 12.2243C89.1439 11.476 90.0378 10.9014 90.945 10.5005C91.879 10.0997 92.7195 9.89924 93.4666 9.89924C94.4806 9.89924 95.2278 10.1264 95.7081 10.5807C96.2151 11.035 96.4686 11.5962 96.4686 12.2644C96.4686 13.2264 96.0817 14.1885 95.3078 15.1506C94.5607 16.1127 93.3199 16.9812 91.5854 17.7562C89.851 18.5045 87.4895 19.0791 84.5009 19.48L84.5809 18.3174C86.3421 18.1838 87.8097 17.8364 88.9838 17.2752C90.1578 16.6873 91.0251 16.0325 91.5854 15.3109C92.1725 14.5627 92.466 13.8945 92.466 13.3066C92.466 12.585 92.1191 12.2243 91.4253 12.2243C90.7049 12.2243 89.9977 12.5182 89.304 13.1062C88.6369 13.6674 88.0231 14.4157 87.4628 15.351C86.9291 16.2864 86.4888 17.3019 86.1419 18.3976C85.8217 19.4933 85.6616 20.5757 85.6616 21.6446C85.6616 22.6869 85.8618 23.4753 86.262 24.0098C86.689 24.5175 87.3027 24.7714 88.1032 24.7714C88.6636 24.7714 89.2373 24.6244 89.8243 24.3304C90.4113 24.0365 91.0117 23.5822 91.6255 22.9675C92.2392 22.3261 92.8262 21.5244 93.3866 20.5623L94.1471 21.0433C93.3999 22.3528 92.506 23.5554 91.4654 24.6511C90.4247 25.7468 89.344 26.6287 88.2233 27.2969C87.1026 27.965 86.0619 28.299 85.1013 28.299ZM100.085 28.299C99.071 28.299 98.137 28.1253 97.2832 27.7779C96.4293 27.4305 95.7488 26.9094 95.2418 26.2145C94.7348 25.493 94.4814 24.6244 94.4814 23.6089C94.4814 22.7003 94.7215 22.0321 95.2018 21.6046C95.6821 21.1502 96.1891 20.9231 96.7228 20.9231C97.2565 20.9231 97.7234 21.0968 98.1237 21.4442C98.5506 21.7649 98.7641 22.2059 98.7641 22.7671C98.7641 23.0878 98.6974 23.3684 98.564 23.6089C98.4306 23.8227 98.2971 24.0231 98.1637 24.2102C97.9769 24.424 97.8035 24.6378 97.6434 24.8516C97.4833 25.0654 97.4032 25.3192 97.4032 25.6132C97.4032 26.0141 97.6567 26.3749 98.1637 26.6956C98.6707 26.9895 99.2578 27.1365 99.9249 27.1365C100.725 27.1365 101.392 26.8826 101.926 26.3749C102.46 25.8404 102.727 25.0386 102.727 23.9697C102.727 23.355 102.567 22.7403 102.246 22.1257C101.926 21.4843 101.526 20.8295 101.046 20.1614C100.459 19.3062 99.8982 18.4377 99.3645 17.5558C98.8575 16.6739 98.604 15.6851 98.604 14.5894C98.604 13.7075 98.8308 12.9191 99.2844 12.2243C99.7381 11.5027 100.392 10.9281 101.246 10.5005C102.1 10.073 103.1 9.85916 104.248 9.85916C105.582 9.85916 106.743 10.1798 107.73 10.8212C108.744 11.4359 109.251 12.3713 109.251 13.6273C109.251 14.1351 109.091 14.5894 108.771 14.9903C108.45 15.3644 107.983 15.5515 107.37 15.5515C106.729 15.5515 106.262 15.3778 105.969 15.0303C105.675 14.6829 105.528 14.2553 105.528 13.7476C105.528 13.6674 105.528 13.5739 105.528 13.467C105.555 13.3333 105.582 13.2131 105.609 13.1062C105.635 12.9726 105.662 12.8389 105.689 12.7053C105.715 12.545 105.729 12.4247 105.729 12.3445C105.729 11.9437 105.568 11.6096 105.248 11.3424C104.928 11.0751 104.501 10.9415 103.967 10.9415C103.46 10.9415 103.007 11.1286 102.607 11.5027C102.206 11.8769 102.006 12.4915 102.006 13.3467C102.006 14.0148 102.22 14.723 102.647 15.4713C103.1 16.1928 103.567 16.8877 104.048 17.5558C104.661 18.3843 105.182 19.1726 105.609 19.9209C106.035 20.6425 106.249 21.6045 106.249 22.8071C106.249 24.0365 105.942 25.0654 105.328 25.8938C104.741 26.6956 103.967 27.2969 103.007 27.6977C102.073 28.0986 101.099 28.299 100.085 28.299ZM113.783 28.299C112.769 28.299 111.835 28.1253 110.981 27.7779C110.127 27.4305 109.447 26.9094 108.94 26.2145C108.433 25.493 108.18 24.6244 108.18 23.6089C108.18 22.7003 108.42 22.0321 108.9 21.6046C109.38 21.1502 109.887 20.9231 110.421 20.9231C110.955 20.9231 111.422 21.0968 111.822 21.4442C112.249 21.7649 112.462 22.2059 112.462 22.7671C112.462 23.0878 112.396 23.3684 112.262 23.6089C112.129 23.8227 111.995 24.0231 111.862 24.2102C111.675 24.424 111.502 24.6378 111.342 24.8516C111.181 25.0654 111.101 25.3192 111.101 25.6132C111.101 26.0141 111.355 26.3749 111.862 26.6956C112.369 26.9895 112.956 27.1365 113.623 27.1365C114.424 27.1365 115.091 26.8826 115.624 26.3749C116.158 25.8404 116.425 25.0386 116.425 23.9697C116.425 23.355 116.265 22.7403 115.945 22.1257C115.624 21.4843 115.224 20.8295 114.744 20.1614C114.157 19.3062 113.596 18.4377 113.063 17.5558C112.556 16.6739 112.302 15.6851 112.302 14.5894C112.302 13.7075 112.529 12.9191 112.983 12.2243C113.436 11.5027 114.09 10.9281 114.944 10.5005C115.798 10.073 116.798 9.85916 117.946 9.85916C119.28 9.85916 120.441 10.1798 121.428 10.8212C122.442 11.4359 122.949 12.3713 122.949 13.6273C122.949 14.1351 122.789 14.5894 122.469 14.9903C122.149 15.3644 121.682 15.5515 121.068 15.5515C120.427 15.5515 119.96 15.3778 119.667 15.0303C119.373 14.6829 119.227 14.2553 119.227 13.7476C119.227 13.6674 119.227 13.5739 119.227 13.467C119.253 13.3333 119.28 13.2131 119.307 13.1062C119.333 12.9726 119.36 12.8389 119.387 12.7053C119.413 12.545 119.427 12.4247 119.427 12.3445C119.427 11.9437 119.267 11.6096 118.946 11.3424C118.626 11.0751 118.199 10.9415 117.666 10.9415C117.159 10.9415 116.705 11.1286 116.305 11.5027C115.905 11.8769 115.704 12.4915 115.704 13.3467C115.704 14.0148 115.918 14.723 116.345 15.4713C116.798 16.1928 117.265 16.8877 117.746 17.5558C118.359 18.3843 118.88 19.1726 119.307 19.9209C119.734 20.6425 119.947 21.6045 119.947 22.8071C119.947 24.0365 119.64 25.0654 119.027 25.8938C118.439 26.6956 117.666 27.2969 116.705 27.6977C115.771 28.0986 114.797 28.299 113.783 28.299ZM129.914 28.3391C128.099 28.3391 126.618 27.8714 125.471 26.9361C124.323 25.974 123.75 24.571 123.75 22.727C123.75 20.9632 124.03 19.3196 124.59 17.7963C125.177 16.2463 125.951 14.8834 126.912 13.7075C127.899 12.5049 129.006 11.5695 130.234 10.9014C131.488 10.2333 132.769 9.89924 134.076 9.89924C135.944 9.89924 137.398 10.4337 138.439 11.5027C139.48 12.5717 140 13.9213 140 15.5515C140 17.2618 139.733 18.892 139.199 20.442C138.666 21.9653 137.932 23.3283 136.998 24.5309C136.064 25.7068 134.983 26.6421 133.756 27.3369C132.555 28.0051 131.274 28.3391 129.914 28.3391ZM129.113 27.0563C129.753 27.0563 130.407 26.7356 131.074 26.0943C131.768 25.4529 132.422 24.6244 133.036 23.6089C133.649 22.5666 134.196 21.4442 134.677 20.2416C135.184 19.039 135.584 17.8765 135.877 16.7541C136.171 15.6049 136.318 14.6161 136.318 13.7876C136.318 12.0773 135.757 11.2221 134.637 11.2221C133.996 11.2221 133.342 11.5428 132.675 12.1842C132.008 12.8256 131.354 13.654 130.714 14.6696C130.1 15.6851 129.553 16.7942 129.073 17.9967C128.593 19.1994 128.206 20.3752 127.912 21.5244C127.619 22.6468 127.472 23.6222 127.472 24.4507C127.472 25.2792 127.619 25.9205 127.912 26.3749C128.206 26.8292 128.606 27.0563 129.113 27.0563Z" stroke="#46332A" stroke-linecap="round" stroke-linejoin="round"/>
</svg>
